<svg width="37" height="38" viewBox="0 0 37 38" fill="none" xmlns="http://www.w3.org/2000/svg">
<path d="M10.216 8.62455C9.68236 8.07754 8.81661 8.07754 8.283 8.62455C6.30176 10.6539 5.32798 13.4808 5.61097 16.381C5.68158 17.1035 6.27582 17.6421 6.96979 17.6421C7.01539 17.6421 7.06135 17.6397 7.10695 17.6351C7.85837 17.5581 8.4065 16.8715 8.33135 16.1023C8.12994 14.0413 8.81712 12.0372 10.216 10.6043C10.75 10.0579 10.75 9.17103 10.216 8.62455Z" fill="white"/>
<path d="M15.6293 0C7.01128 0 0 7.1814 0 16.0085C0 24.8357 7.01128 32.0171 15.6293 32.0171C24.2474 32.0171 31.2586 24.8357 31.2586 16.0085C31.2586 7.1814 24.2473 0 15.6293 0ZM15.6293 29.2167C8.51867 29.2167 2.73403 23.2917 2.73403 16.0085C2.73403 8.72537 8.51867 2.80036 15.6293 2.80036C22.7395 2.80036 28.5246 8.72537 28.5246 16.0085C28.5246 23.2917 22.74 29.2167 15.6293 29.2167Z" fill="white"/>
<path d="M36.5995 35.5076L26.6659 25.3331C26.1318 24.7861 25.267 24.7861 24.7329 25.3331C24.1989 25.8797 24.1989 26.7664 24.7329 27.313L34.6665 37.4875C34.9336 37.761 35.2831 37.8977 35.633 37.8977C35.983 37.8977 36.3325 37.761 36.5995 37.4875C37.1335 36.9409 37.1335 36.0542 36.5995 35.5076Z" fill="white"/>
</svg>
